# xmcd CD database file
#
# Track frame offsets:
#	150
#	36590
#	55715
#	70557
#	84972
#	103078
#	119566
#	137945
#	160689
#	184222
#
# Disc length: 2575 seconds
#
# Revision: 0
# Processed by: cddbd v1.5.2PL0 Copyright (c) Steve Scherf et al.
# Submitted via: CDex 1.51
#
DISCID=870a0d0a
DTITLE=Viktor Krauss - II
DYEAR=2007
DGENRE=Jazz
TTITLE0=Hop
TTITLE1=No Time Like The Past
TTITLE2=Eyes In The Heat
TTITLE3=When She's Dancing (Feat. Ben Taylor)
TTITLE4=Pinky Ring
TTITLE5=(i Could Have Been) Your Best Friend (Feat. Lyle Lovett)
TTITLE6=Ecotone
TTITLE7=Shine On You Crazy Diamond (Feat. Shawn Colvin)
TTITLE8=Dudeman
TTITLE9=Last Book
EXTD=YEAR: 2007
EXTT0=
EXTT1=
EXTT2=
EXTT3=
EXTT4=
EXTT5=
EXTT6=
EXTT7=
EXTT8=
EXTT9=
PLAYORDER=
